<svg width="26" height="26" viewBox="0 0 26 26" fill="none" xmlns="http://www.w3.org/2000/svg">
<path d="M25.6998 0.315488C25.5534 0.169974 25.3685 0.0692266 25.1667 0.0250897C24.965 -0.0190472 24.7548 -0.00473836 24.561 0.0663339L0.699944 8.73255C0.494162 8.81051 0.316996 8.94916 0.191976 9.13007C0.0669567 9.31098 0 9.5256 0 9.74542C0 9.96524 0.0669567 10.1799 0.191976 10.3608C0.316996 10.5417 0.494162 10.6803 0.699944 10.7583L10.0166 14.4739L16.8929 7.58428L18.4222 9.1117L11.5133 16.0122L15.2443 25.3175C15.3247 25.5191 15.4638 25.6919 15.6436 25.8136C15.8235 25.9353 16.0358 26.0002 16.253 26C16.4722 25.9955 16.6848 25.9248 16.863 25.7972C17.0411 25.6695 17.1763 25.491 17.2508 25.285L25.9275 1.45293C26.0014 1.26127 26.0193 1.05258 25.9789 0.851194C25.9386 0.649805 25.8418 0.464016 25.6998 0.315488Z" fill="url(#paint0_linear_101_93)"/>
<defs>
<linearGradient id="paint0_linear_101_93" x1="0" y1="26" x2="31.1757" y2="10.2351" gradientUnits="userSpaceOnUse">
<stop stop-color="#0F2027"/>
<stop offset="0.494792" stop-color="#203A43"/>
<stop offset="1" stop-color="#2C5364"/>
</linearGradient>
</defs>
</svg>
