<svg width="50" height="50" viewBox="0 0 50 50" fill="none" xmlns="http://www.w3.org/2000/svg">
<path d="M50 25C50 37.0812 38.8063 46.875 25 46.875C22.5239 46.8783 20.0581 46.5568 17.6656 45.9188C15.8406 46.8438 11.65 48.6188 4.6 49.775C3.975 49.875 3.5 49.225 3.74688 48.6437C4.85313 46.0312 5.85312 42.55 6.15312 39.375C2.325 35.5313 0 30.5 0 25C0 12.9188 11.1937 3.125 25 3.125C38.8063 3.125 50 12.9188 50 25ZM15.625 25C15.625 24.1712 15.2958 23.3763 14.7097 22.7903C14.1237 22.2042 13.3288 21.875 12.5 21.875C11.6712 21.875 10.8763 22.2042 10.2903 22.7903C9.70424 23.3763 9.375 24.1712 9.375 25C9.375 25.8288 9.70424 26.6237 10.2903 27.2097C10.8763 27.7958 11.6712 28.125 12.5 28.125C13.3288 28.125 14.1237 27.7958 14.7097 27.2097C15.2958 26.6237 15.625 25.8288 15.625 25V25ZM28.125 25C28.125 24.1712 27.7958 23.3763 27.2097 22.7903C26.6237 22.2042 25.8288 21.875 25 21.875C24.1712 21.875 23.3763 22.2042 22.7903 22.7903C22.2042 23.3763 21.875 24.1712 21.875 25C21.875 25.8288 22.2042 26.6237 22.7903 27.2097C23.3763 27.7958 24.1712 28.125 25 28.125C25.8288 28.125 26.6237 27.7958 27.2097 27.2097C27.7958 26.6237 28.125 25.8288 28.125 25V25ZM37.5 28.125C38.3288 28.125 39.1237 27.7958 39.7097 27.2097C40.2958 26.6237 40.625 25.8288 40.625 25C40.625 24.1712 40.2958 23.3763 39.7097 22.7903C39.1237 22.2042 38.3288 21.875 37.5 21.875C36.6712 21.875 35.8763 22.2042 35.2903 22.7903C34.7042 23.3763 34.375 24.1712 34.375 25C34.375 25.8288 34.7042 26.6237 35.2903 27.2097C35.8763 27.7958 36.6712 28.125 37.5 28.125V28.125Z" fill="url(#paint0_linear_99_78)"/>
<defs>
<linearGradient id="paint0_linear_99_78" x1="0" y1="49.7853" x2="58.196" y2="18.2504" gradientUnits="userSpaceOnUse">
<stop stop-color="#0F2027"/>
<stop offset="0.494792" stop-color="#203A43"/>
<stop offset="1" stop-color="#2C5364"/>
</linearGradient>
</defs>
</svg>
