<svg width="22" height="17" viewBox="0 0 22 17" fill="none" xmlns="http://www.w3.org/2000/svg">
<path d="M3.725 16.1967C2.675 16.1967 1.80834 15.836 1.125 15.1147C0.44167 14.3934 0.0833364 13.5491 0.0500031 12.5819C0.0500031 12.4508 0.0583365 12.3032 0.0750031 12.1393C0.0916698 11.9754 0.11667 11.8278 0.150003 11.6967L2.25 3.43439C2.48334 2.56554 2.96267 1.85243 3.688 1.29505C4.41267 0.737673 5.225 0.458984 6.125 0.458984H15.875C16.775 0.458984 17.5873 0.737673 18.312 1.29505C19.0373 1.85243 19.5167 2.56554 19.75 3.43439L21.85 11.6967C21.8833 11.8442 21.9127 11.9957 21.938 12.1511C21.9627 12.3072 21.975 12.459 21.975 12.6065C21.975 13.5901 21.621 14.4344 20.913 15.1393C20.2043 15.8442 19.325 16.1967 18.275 16.1967C17.575 16.1967 16.925 16.0164 16.325 15.6557C15.725 15.2951 15.275 14.8032 14.975 14.1803L14.275 12.7541C14.1917 12.5737 14.071 12.4469 13.913 12.3734C13.7543 12.2993 13.575 12.2623 13.375 12.2623H8.625C8.425 12.2623 8.246 12.2993 8.088 12.3734C7.92934 12.4469 7.80834 12.5737 7.725 12.7541L7.025 14.1803C6.725 14.8032 6.275 15.2951 5.675 15.6557C5.075 16.0164 4.425 16.1967 3.725 16.1967V16.1967ZM3.8 14.2295C4.08334 14.2295 4.35434 14.1557 4.613 14.0082C4.871 13.8606 5.08334 13.6311 5.25 13.3196L5.95 11.918C6.2 11.4098 6.56234 11.0124 7.037 10.7259C7.51234 10.4387 8.04167 10.2951 8.625 10.2951H13.375C13.9417 10.2951 14.4667 10.4426 14.95 10.7377C15.4333 11.0328 15.8083 11.4262 16.075 11.918L16.775 13.3196C16.9417 13.6311 17.1543 13.8606 17.413 14.0082C17.671 14.1557 17.9417 14.2295 18.225 14.2295C18.6583 14.2295 19.05 14.0819 19.4 13.7869C19.75 13.4918 19.9333 13.1065 19.95 12.6311V12.397C19.95 12.3236 19.9333 12.2459 19.9 12.1639L17.8 3.9262C17.6833 3.48357 17.45 3.12292 17.1 2.84423C16.75 2.56554 16.3417 2.4262 15.875 2.4262H6.125C5.65834 2.4262 5.246 2.56554 4.888 2.84423C4.52934 3.12292 4.3 3.48357 4.2 3.9262L2.1 12.1639C2.06667 12.2623 2.05 12.4098 2.05 12.6065C2.05 13.0819 2.23334 13.4714 2.6 13.7751C2.96667 14.078 3.36667 14.2295 3.8 14.2295V14.2295ZM12.5 7.34423C12.2167 7.34423 11.9793 7.2498 11.788 7.06095C11.596 6.87275 11.5 6.63931 11.5 6.36062C11.5 6.08194 11.596 5.84816 11.788 5.65931C11.9793 5.47112 12.2167 5.37702 12.5 5.37702C12.7833 5.37702 13.021 5.47112 13.213 5.65931C13.4043 5.84816 13.5 6.08194 13.5 6.36062C13.5 6.63931 13.4043 6.87275 13.213 7.06095C13.021 7.2498 12.7833 7.34423 12.5 7.34423ZM14.5 5.37702C14.2167 5.37702 13.9793 5.28259 13.788 5.09374C13.596 4.90554 13.5 4.6721 13.5 4.39341C13.5 4.11472 13.596 3.88095 13.788 3.6921C13.9793 3.5039 14.2167 3.4098 14.5 3.4098C14.7833 3.4098 15.0207 3.5039 15.212 3.6921C15.404 3.88095 15.5 4.11472 15.5 4.39341C15.5 4.6721 15.404 4.90554 15.212 5.09374C15.0207 5.28259 14.7833 5.37702 14.5 5.37702ZM14.5 9.31144C14.2167 9.31144 13.9793 9.21702 13.788 9.02816C13.596 8.83997 13.5 8.60653 13.5 8.32784C13.5 8.04915 13.596 7.81538 13.788 7.62653C13.9793 7.43833 14.2167 7.34423 14.5 7.34423C14.7833 7.34423 15.0207 7.43833 15.212 7.62653C15.404 7.81538 15.5 8.04915 15.5 8.32784C15.5 8.60653 15.404 8.83997 15.212 9.02816C15.0207 9.21702 14.7833 9.31144 14.5 9.31144ZM16.5 7.34423C16.2167 7.34423 15.9793 7.2498 15.788 7.06095C15.596 6.87275 15.5 6.63931 15.5 6.36062C15.5 6.08194 15.596 5.84816 15.788 5.65931C15.9793 5.47112 16.2167 5.37702 16.5 5.37702C16.7833 5.37702 17.0207 5.47112 17.212 5.65931C17.404 5.84816 17.5 6.08194 17.5 6.36062C17.5 6.63931 17.404 6.87275 17.212 7.06095C17.0207 7.2498 16.7833 7.34423 16.5 7.34423ZM7.5 8.81964C7.3 8.81964 7.125 8.74587 6.975 8.59833C6.825 8.45079 6.75 8.27866 6.75 8.08194V7.09833H5.75C5.55 7.09833 5.375 7.02456 5.225 6.87702C5.075 6.72948 5 6.55735 5 6.36062C5 6.1639 5.075 5.99177 5.225 5.84423C5.375 5.69669 5.55 5.62292 5.75 5.62292H6.75V4.63931C6.75 4.44259 6.825 4.27046 6.975 4.12292C7.125 3.97538 7.3 3.90161 7.5 3.90161C7.7 3.90161 7.875 3.97538 8.025 4.12292C8.175 4.27046 8.25 4.44259 8.25 4.63931V5.62292H9.25C9.45 5.62292 9.625 5.69669 9.775 5.84423C9.925 5.99177 10 6.1639 10 6.36062C10 6.55735 9.925 6.72948 9.775 6.87702C9.625 7.02456 9.45 7.09833 9.25 7.09833H8.25V8.08194C8.25 8.27866 8.175 8.45079 8.025 8.59833C7.875 8.74587 7.7 8.81964 7.5 8.81964Z" fill="white"/>
</svg>
