<svg width="18" height="18" viewBox="0 0 18 18" fill="none" xmlns="http://www.w3.org/2000/svg">
<path d="M11.8125 1.125C11.022 1.12482 10.2424 1.30982 9.5362 1.66517C8.83003 2.02053 8.21692 2.53636 7.746 3.17133C7.27507 3.8063 6.95944 4.54275 6.82438 5.32166C6.68932 6.10058 6.73859 6.90031 6.96825 7.65675L1.125 13.5V16.875H4.5L10.3433 11.0317C11.0396 11.2431 11.7733 11.3019 12.4944 11.204C13.2154 11.1062 13.907 10.854 14.5218 10.4648C15.1366 10.0755 15.6603 9.55827 16.0571 8.94831C16.454 8.33835 16.7146 7.65 16.8214 6.93019C16.9282 6.21037 16.8785 5.47599 16.6757 4.77711C16.473 4.07823 16.122 3.43127 15.6466 2.88032C15.1712 2.32936 14.5827 1.88737 13.921 1.58446C13.2594 1.28154 12.5402 1.12483 11.8125 1.125V1.125ZM11.8125 10.125C11.4252 10.1248 11.0401 10.0675 10.6695 9.95512L10.0243 9.75938L9.54788 10.2358L7.75856 12.0251L6.98287 11.25L6.1875 12.0454L6.96319 12.8211L6.07106 13.7132L5.29537 12.9375L4.5 13.7329L5.27569 14.5086L4.03425 15.75H2.25V13.9657L7.76363 8.45213L8.24062 7.97569L8.04488 7.3305C7.80445 6.53793 7.82007 5.68973 8.08951 4.90656C8.35895 4.12338 8.86849 3.4451 9.54565 2.96821C10.2228 2.49133 11.0331 2.24011 11.8613 2.2503C12.6894 2.26049 13.4933 2.53156 14.1585 3.02497C14.8237 3.51837 15.3164 4.20897 15.5665 4.99854C15.8166 5.78811 15.8114 6.63644 15.5515 7.42285C15.2917 8.20927 14.7905 8.89372 14.1192 9.37884C13.4479 9.86397 12.6407 10.1251 11.8125 10.125V10.125Z" fill="white"/>
<path d="M12.375 6.75C12.9963 6.75 13.5 6.24632 13.5 5.625C13.5 5.00368 12.9963 4.5 12.375 4.5C11.7537 4.5 11.25 5.00368 11.25 5.625C11.25 6.24632 11.7537 6.75 12.375 6.75Z" fill="white"/>
</svg>
