<svg width="58" height="58" viewBox="0 0 58 58" fill="none" xmlns="http://www.w3.org/2000/svg">
<path fill-rule="evenodd" clip-rule="evenodd" d="M24.4861 1.28711C25.6768 0.929917 26.9345 0.856026 28.1588 1.07133C29.3832 1.28664 30.5402 1.78518 31.5376 2.52717C32.535 3.26915 33.3452 4.23403 33.9034 5.34478C34.4616 6.45553 34.7524 7.68139 34.7526 8.92451V47.8C34.7524 49.0432 34.4616 50.269 33.9034 51.3798C33.3452 52.4905 32.535 53.4554 31.5376 54.1974C30.5402 54.9394 29.3832 55.4379 28.1588 55.6532C26.9345 55.8685 25.6768 55.7946 24.4861 55.4374L8.53606 50.6524C6.89348 50.1597 5.45348 49.1506 4.42968 47.7748C3.40588 46.3991 2.85282 44.7299 2.85254 43.015V13.7095C2.85282 11.9946 3.40588 10.3255 4.42968 8.94972C5.45348 7.57396 6.89348 6.56486 8.53606 6.07211L24.4861 1.28711V1.28711ZM37.4109 7.09557C37.4109 6.39054 37.691 5.71438 38.1895 5.21585C38.6881 4.71731 39.3642 4.43724 40.0693 4.43724H48.0443C50.1594 4.43724 52.1879 5.27746 53.6835 6.77306C55.1791 8.26867 56.0193 10.2971 56.0193 12.4122V15.0706C56.0193 15.7756 55.7392 16.4518 55.2407 16.9503C54.7421 17.4488 54.066 17.7289 53.3609 17.7289C52.6559 17.7289 51.9797 17.4488 51.4812 16.9503C50.9827 16.4518 50.7026 15.7756 50.7026 15.0706V12.4122C50.7026 11.7072 50.4225 11.0311 49.924 10.5325C49.4255 10.034 48.7493 9.75391 48.0443 9.75391H40.0693C39.3642 9.75391 38.6881 9.47384 38.1895 8.9753C37.691 8.47677 37.4109 7.80061 37.4109 7.09557ZM53.3609 38.9956C54.066 38.9956 54.7421 39.2757 55.2407 39.7742C55.7392 40.2728 56.0193 40.9489 56.0193 41.654V44.3123C56.0193 46.4274 55.1791 48.4559 53.6835 49.9515C52.1879 51.4471 50.1594 52.2873 48.0443 52.2873H40.0693C39.3642 52.2873 38.6881 52.0072 38.1895 51.5087C37.691 51.0102 37.4109 50.334 37.4109 49.629C37.4109 48.9239 37.691 48.2478 38.1895 47.7492C38.6881 47.2507 39.3642 46.9706 40.0693 46.9706H48.0443C48.7493 46.9706 49.4255 46.6906 49.924 46.192C50.4225 45.6935 50.7026 45.0173 50.7026 44.3123V41.654C50.7026 40.9489 50.9827 40.2728 51.4812 39.7742C51.9797 39.2757 52.6559 38.9956 53.3609 38.9956ZM21.4609 25.7039C20.7559 25.7039 20.0797 25.984 19.5812 26.4825C19.0826 26.9811 18.8026 27.6572 18.8026 28.3623C18.8026 29.0673 19.0826 29.7435 19.5812 30.242C20.0797 30.7405 20.7559 31.0206 21.4609 31.0206H21.4636C22.1686 31.0206 22.8448 30.7405 23.3433 30.242C23.8418 29.7435 24.1219 29.0673 24.1219 28.3623C24.1219 27.6572 23.8418 26.9811 23.3433 26.4825C22.8448 25.984 22.1686 25.7039 21.4636 25.7039H21.4609Z" fill="white"/>
<path d="M40.0691 28.3623H53.3608M53.3608 28.3623L48.0441 23.0456M53.3608 28.3623L48.0441 33.6789" stroke="white" stroke-width="2" stroke-linecap="round" stroke-linejoin="round"/>
</svg>
