<svg width="20" height="20" viewBox="0 0 20 20" fill="none" xmlns="http://www.w3.org/2000/svg">
<path d="M1.42857 3.53372V15.0293C1.42857 15.4104 1.57908 15.7759 1.84699 16.0454C2.1149 16.3149 2.47826 16.4663 2.85714 16.4663H17.1429C17.5217 16.4663 17.8851 16.3149 18.153 16.0454C18.4209 15.7759 18.5714 15.4104 18.5714 15.0293V3.53372H1.42857ZM1.42857 2.09677H18.5714C18.9503 2.09677 19.3137 2.24816 19.5816 2.51764C19.8495 2.78712 20 3.15262 20 3.53372V15.0293C20 15.7915 19.699 16.5225 19.1632 17.0615C18.6273 17.6004 17.9006 17.9032 17.1429 17.9032H2.85714C2.09938 17.9032 1.37266 17.6004 0.836838 17.0615C0.30102 16.5225 0 15.7915 0 15.0293V3.53372C0 3.15262 0.15051 2.78712 0.418419 2.51764C0.686328 2.24816 1.04969 2.09677 1.42857 2.09677V2.09677Z" fill="#1E373F"/>
<path d="M18.8711 3.5484L13.2704 9.83318C12.8626 10.2909 12.3598 10.6577 11.7958 10.909C11.2318 11.1603 10.6195 11.2903 10.0001 11.2903C9.38071 11.2903 8.76847 11.1603 8.20444 10.909C7.64041 10.6577 7.13762 10.2909 6.72981 9.83318L1.12915 3.5484H18.8711ZM3.05397 3.5484L7.81895 8.89615C8.09082 9.20137 8.42604 9.44597 8.80211 9.61356C9.17817 9.78116 9.5864 9.86786 9.99939 9.86786C10.4124 9.86786 10.8206 9.78116 11.1967 9.61356C11.5727 9.44597 11.908 9.20137 12.1798 8.89615L16.9463 3.5484H3.05397V3.5484Z" fill="#1E373F"/>
</svg>
