<svg width="58" height="58" viewBox="0 0 58 58" fill="none" xmlns="http://www.w3.org/2000/svg">
<rect x="18" width="3" height="58" rx="1.5" fill="white"/>
<rect y="40" width="3" height="58" rx="1.5" transform="rotate(-90 0 40)" fill="white"/>
<rect x="37" width="3" height="58" rx="1.5" fill="white"/>
<rect y="21" width="3" height="58" rx="1.5" transform="rotate(-90 0 21)" fill="white"/>
<rect x="24" y="24" width="10" height="10" rx="5" stroke="white" stroke-width="2"/>
<rect x="5" y="5" width="10" height="10" rx="5" stroke="white" stroke-width="2"/>
<rect x="42" y="5.5" width="2.12132" height="14.8492" rx="1.06066" transform="rotate(-45 42 5.5)" fill="white"/>
<rect x="42" y="44.5" width="2.12132" height="14.8492" rx="1.06066" transform="rotate(-45 42 44.5)" fill="white"/>
<rect x="43.5" y="16" width="2.12132" height="14.8492" rx="1.06066" transform="rotate(-135 43.5 16)" fill="white"/>
<rect x="43.5" y="55" width="2.12132" height="14.8492" rx="1.06066" transform="rotate(-135 43.5 55)" fill="white"/>
</svg>
